<svg xmlns="http://www.w3.org/2000/svg" xmlns:xlink="http://www.w3.org/1999/xlink" width="21" height="12" viewBox="0 0 21 12">
    <defs>
        <rect id="66hi80766a" width="21" height="12" x="0" y="0" rx="1"/>
    </defs>
    <g fill="none" fill-rule="evenodd">
        <g>
            <mask id="xp1rcx19ib" fill="#fff">
                <use xlink:href="#66hi80766a"/>
            </mask>
            <use fill="#FFF" xlink:href="#66hi80766a"/>
            <g mask="url(#xp1rcx19ib)">
                <path fill="#FFF" d="M0 12L21 12 21 0 0 0z"/>
                <path fill="#BD0034" d="M20.544 0L13 4 14.384 4 21 .491 21 0zM14 8L21 12 21 11.2 15.398 8zM0 .755L6.484 4 8 4 0 0zM7.513 8L0 11.932 0 12 1.358 12 9 8z"/>
                <path fill="#1A237B" d="M12 0L12 4 19 0zM2 0L9 4 9 0zM16 4L21 4 21 1zM16 8L21 11 21 8zM2 12L9 12 9 8zM12 12L19 12 12 8zM0 8L0 11 5 8zM0 4L5 4 0 1z"/>
                <path fill="#BD0034" d="M9.613 0L9.613 5.051 0 5.051 0 7.191 9.613 7.191 9.613 12 11.561 12 11.561 7.191 21 7.191 21 5.051 11.561 5.051 11.561 0z"/>
            </g>
        </g>
    </g>
</svg>
